{"title":"Justin_Bieber_The_Talk_720p_20110223_TTL","uid":6198043,"size":975342754,"categoryP":"video","categoryS":"hd___tv_shows","magnet":"?xt=urn:btih:69de9fb62db1502f54ad4a9c15ae8deb7b3ded3e&amp;dn=Justin_Bieber_The_Talk_720p_20110223_TTL&amp;tr=udp%3A%2F%2Ftracker.openbittorrent.com%3A80&amp;tr=udp%3A%2F%2Fopen.demonii.com%3A1337&amp;tr=udp%3A%2F%2Ftracker.coppersurfer.tk%3A6969&amp;tr=udp%3A%2F%2Fexodus.desync.com%3A6969","seeders":0,"leechers":0,"uploader":"thetorrentlord","files":2,"time":1298505937,"description":"The_Talk_Justin_Bieber_720p_20110223_TTL.avi\nFormat                           : AVI\nFormat/Info                      : Audio Video Interleave\nFile size                        : 930 MiB\nDuration                         : 57mn 52s\nOverall bit rate                 : 2 247 Kbps\nMovie name                       : The_Talk_Justin_Bieber_720p_20110223_TTL.mpg\nDirector                         : created.with.SUPER(C).v2010.bld.37\nWriting application              : SUPER(C)   \n\nVideo\nID                               : 0\nFormat                           : MPEG-4 Visual\nFormat profile                   : Simple@L3\nFormat settings, BVOP            : No\nFormat settings, QPel            : No\nFormat settings, GMC             : No warppoints\nFormat settings, Matrix          : Default (H.263)\nCodec ID                         : XVID\nCodec ID/Hint                    : XviD\nDuration                         : 28mn 56s\nBit rate                         : 4 369 Kbps\nWidth                            : 1 280 pixels\nHeight                           : 720 pixels\nDisplay aspect ratio             : 16:9\nFrame rate                       : 29.970 fps\nResolution                       : 8 bits\nColorimetry                      : 4:2:0\nScan type                        : Progressive\nBits/(Pixel*Frame)               : 0.158\nStream size                      : 904 MiB (97%)\nWriting library                  : XviD 1.1.2 (UTC 2006-11-01)\n\nAudio\nID                               : 1\nFormat                           : MPEG Audio\nFormat version                   : Version 2\nFormat profile                   : Layer 3\nMode                             : Joint stereo\nFormat_Settings_ModeExtension    : MS Stereo\nCodec ID                         : 55\nCodec ID/Hint                    : MP3\nDuration                         : 57mn 52s\nBit rate mode                    : Constant\nBit rate                         : 112 Kbps\nChannel(s)                       : 2 channels\nSampling rate                    : 22.05 KHz\nStream size                      : 23.2 MiB (2%)\nAlignment                        : Aligned on interleaves\nInterleave, duration             : 26 ms (0.78 video frame)\nInterleave, preload duration     : 26 ms\nWriting library                  : LAME3.98\n\n","torrent":{"xt":"urn:btih:69de9fb62db1502f54ad4a9c15ae8deb7b3ded3e","amp;dn":"Justin_Bieber_The_Talk_720p_20110223_TTL","amp;tr":["udp%3A%2F%2Ftracker.openbittorrent.com%3A80","udp%3A%2F%2Fopen.demonii.com%3A1337","udp%3A%2F%2Ftracker.coppersurfer.tk%3A6969","udp%3A%2F%2Fexodus.desync.com%3A6969"],"infoHash":"69de9fb62db1502f54ad4a9c15ae8deb7b3ded3e","infoHashBuffer":{"type":"Buffer","data":[105,222,159,182,45,177,80,47,84,173,74,156,21,174,141,235,123,61,237,62]},"announce":[],"urlList":[]}}